<svg xmlns="http://www.w3.org/2000/svg" width="15.076" height="15.076" viewBox="0 0 15.076 15.076">
  <path id="Path_6" data-name="Path 6"
        d="M75.661,11.889c-.006-.01-.017-.013-.024-.022a.424.424,0,0,0-.721,0c-.006.009-.017.012-.023.022L71.36,18.072a.441.441,0,0,0,.016.464l.787,1.181a5.38,5.38,0,0,1,.906,2.991.441.441,0,0,0,.441.442h3.534a.441.441,0,0,0,.441-.442,5.372,5.372,0,0,1,.906-2.991l.787-1.181a.441.441,0,0,0,.016-.464Zm-.384,6.143.259.259-.259.259-.259-.259Zm2.379,1.195a6.247,6.247,0,0,0-1.038,3.04H73.937a6.259,6.259,0,0,0-1.039-3.04l-.635-.953,2.572-4.5v3.454l-.7.7a.443.443,0,0,0-.055.672l.888.887a.442.442,0,0,0,.624,0l.884-.883a.442.442,0,0,0,0-.624l-.754-.754V13.772l2.572,4.5Zm4.717-8.5a.442.442,0,0,0,.442-.443V8.516a.442.442,0,1,0-.883,0v.441H76.6V8.516a.442.442,0,0,0-.441-.442H74.394a.441.441,0,0,0-.442.442v.441H68.623V8.516a.442.442,0,0,0-.884,0v1.766a.442.442,0,1,0,.884,0V9.841h3.39a6.634,6.634,0,0,0-3.207,4.417h-.6a.44.44,0,0,0-.441.441v1.767a.44.44,0,0,0,.441.441h1.767a.44.44,0,0,0,.441-.441V14.7a.44.44,0,0,0-.441-.441h-.268a5.742,5.742,0,0,1,4.243-4.243v.267a.442.442,0,0,0,.442.443h1.767a.442.442,0,0,0,.441-.443v-.267a5.742,5.742,0,0,1,4.243,4.243h-.268a.441.441,0,0,0-.442.441v1.767a.441.441,0,0,0,.442.441h1.767a.441.441,0,0,0,.442-.441V14.7a.441.441,0,0,0-.442-.441h-.6a6.634,6.634,0,0,0-3.207-4.417h3.391v.441a.442.442,0,0,0,.441.443m-12.838,5.3h-.883v-.884h.883Zm6.184-6.184h-.883V8.957h.883Zm5.3,5.3H81.9v.884h-.884Z"
        transform="translate(-67.739 -8.074)" fill="#342f30"/>
</svg>
