<svg xmlns="http://www.w3.org/2000/svg" width="15.403" height="17.738" viewBox="0 0 15.403 17.738">
  <g id="Group_236" data-name="Group 236" transform="translate(-2192.945 -41.035)">
    <path id="Path_402" data-name="Path 402" d="M2197.336,44.733a3.357,3.357,0,0,1,1.209-2.942,3.177,3.177,0,0,1,2.17-.755,3.222,3.222,0,0,1,2.432,1.137,3.339,3.339,0,0,1,.814,2.562c.242,0,.466.007.689,0a2.858,2.858,0,0,1,1.29.2,2,2,0,0,1,1.277,1.666c.1.78.178,1.563.267,2.344.1.869.2,1.738.3,2.607.078.69.153,1.381.23,2.071.057.507.118,1.015.175,1.522.053.481.116.96.152,1.442a1.877,1.877,0,0,1-.8,1.7,2.289,2.289,0,0,1-1.427.475c-.746,0-1.493,0-2.239,0-.691,0-1.383,0-2.074,0l-2.412-.005q-1.129,0-2.258,0c-.682,0-1.364.018-2.045,0a2.216,2.216,0,0,1-1.7-.827,1.865,1.865,0,0,1-.428-1.474c.06-.463.107-.927.16-1.391.094-.818.19-1.637.282-2.455.085-.744.166-1.489.25-2.233.065-.575.133-1.149.2-1.724.072-.629.144-1.258.209-1.888a2.182,2.182,0,0,1,.3-1,2.145,2.145,0,0,1,1.458-.978,7.162,7.162,0,0,1,1-.062C2196.987,44.727,2197.153,44.733,2197.336,44.733Zm.64.653v.092c0,.685,0,1.37-.005,2.055,0,.079.024.107.1.132a1.449,1.449,0,0,1,.545,2.461,1.445,1.445,0,1,1-1.376-2.462c.069-.02.1-.047.095-.124,0-.582,0-1.165,0-1.748v-.409c-.341,0-.665-.012-.988.005a2.187,2.187,0,0,0-.63.1,1.375,1.375,0,0,0-.986,1.14c-.023.166-.038.332-.057.5q-.156,1.374-.314,2.75-.12,1.061-.241,2.121c-.058.514-.114,1.029-.172,1.543s-.115,1-.172,1.5-.1.99-.17,1.482a1.273,1.273,0,0,0,.477,1.195,1.7,1.7,0,0,0,1.152.4h3.609q1.845,0,3.689,0,1.683,0,3.365,0a2.051,2.051,0,0,0,1.047-.216,1.35,1.35,0,0,0,.748-1.391c-.058-.462-.1-.927-.156-1.39-.073-.639-.149-1.279-.221-1.918-.068-.592-.132-1.184-.2-1.776-.062-.552-.128-1.1-.19-1.653-.043-.376-.081-.752-.123-1.127-.053-.47-.106-.941-.164-1.411a4.92,4.92,0,0,0-.122-.816,1.437,1.437,0,0,0-1.282-1.019,8.639,8.639,0,0,0-1.081-.027h-.185v.4q0,.885,0,1.769c0,.069.017.1.087.119a1.443,1.443,0,1,1-.814,0c.069-.02.086-.051.086-.121,0-.565,0-1.131,0-1.7,0-.152,0-.3,0-.462Zm0-.647h.785c.712,0,1.425-.006,2.137-.006.75,0,1.5,0,2.249.006.169,0,.169,0,.174-.165a2.761,2.761,0,0,0-.211-1.258,2.676,2.676,0,0,0-1.79-1.549,2.519,2.519,0,0,0-1.479.038,2.624,2.624,0,0,0-1.66,1.512A3.107,3.107,0,0,0,2197.981,44.739Zm-.331,5.105a.8.8,0,1,0-.8-.8A.789.789,0,0,0,2197.65,49.844Zm5.994,0a.824.824,0,0,0,.807-.8.8.8,0,1,0-.807.8Z" fill="#fff"/>
  </g>
</svg>
